<svg xmlns="http://www.w3.org/2000/svg" viewBox="0 0 420 420"><defs><radialGradient id="bg"><stop stop-color="#0b5a20"/><stop offset=".55" stop-color="#09230f"/><stop offset="1" stop-color="#050908"/></radialGradient><linearGradient id="skin"><stop stop-color="#8b5633"/><stop offset="1" stop-color="#4c2c1a"/></linearGradient><filter id="s"><feDropShadow dx="0" dy="12" stdDeviation="10" flood-opacity=".7"/></filter></defs><rect width="420" height="420" rx="34" fill="url(#bg)"/><g filter="url(#s)"><path d="M102 139q108-116 216 0v83H102z" fill="#0a1014" stroke="#60e576" stroke-width="9"/><path d="M122 128q88-72 176 0v44H122z" fill="#15271a"/><rect x="170" y="78" width="80" height="45" rx="8" fill="#11181c" stroke="#9cffaa" stroke-width="5"/><text x="210" y="108" text-anchor="middle" font-family="Arial Black" font-size="26" fill="#60e576">TP</text><ellipse cx="210" cy="191" rx="78" ry="70" fill="url(#skin)"/><path d="M162 190q22-18 44 0m52 0q-22-18-44 0" stroke="#110a07" stroke-width="8" fill="none" stroke-linecap="round"/><circle cx="184" cy="197" r="8"/><circle cx="236" cy="197" r="8"/><path d="M166 220q44 40 88 0" fill="none" stroke="#fff" stroke-width="8"/><path d="M100 253q52-48 110-15 58-33 110 15l-25 99H125z" fill="#163f23" stroke="#60e576" stroke-width="9"/><text x="210" y="318" text-anchor="middle" font-family="Arial Black" font-size="68" fill="#fff">00</text><path d="M90 240q-58 8-65 64 40 12 77-8l32-32zM330 240q58 8 65 64-40 12-77-8l-32-32z" fill="url(#skin)" stroke="#f2bf91" stroke-width="6"/><path d="M44 284l42-12m290 12-42-12" stroke="#fff" stroke-width="14" stroke-linecap="round"/></g><text x="210" y="370" text-anchor="middle" font-family="Arial Black" font-size="38" fill="#fff">TUSHPUSHERS</text><text x="210" y="400" text-anchor="middle" font-family="Arial" font-weight="700" font-size="16" fill="#60e576">MOVE THE PILE</text></svg>